<?xml version="1.0" encoding="utf-8"?>
<!-- Generator: Adobe Illustrator 23.0.5, SVG Export Plug-In . SVG Version: 6.00 Build 0)  -->
<svg version="1.1" id="Layer_1" xmlns="http://www.w3.org/2000/svg" xmlns:xlink="http://www.w3.org/1999/xlink" x="0px" y="0px"
	 viewBox="0 0 24 24" style="enable-background:new 0 0 24 24;" xml:space="preserve">
<style type="text/css">
	.st0{fill:url(#SVGID_1_);}
</style>
<linearGradient id="SVGID_1_" gradientUnits="userSpaceOnUse" x1="2.9959" y1="11.99" x2="21.0128" y2="11.99">
	<stop  offset="0" style="stop-color:#14346D"/>
	<stop  offset="1" style="stop-color:#038ABE"/>
</linearGradient>
<path class="st0" d="M20.9,17.3l-2.7-4.7c0.6-1,0.8-2.2,0.8-3.3c0-3.9-3.1-7-7-7s-7,3.1-7,7c0,1.2,0.3,2.3,0.8,3.3l-2.7,4.7
	c-0.3,0.5-0.1,1.1,0.4,1.4c0.2,0.1,0.3,0.1,0.5,0.1h2.9l1.5,2.5c0,0.1,0.1,0.2,0.2,0.2c0.2,0.2,0.4,0.3,0.7,0.3h0.1
	c0.3,0,0.6-0.2,0.7-0.5l1.9-3.3l1.9,3.4c0.2,0.3,0.4,0.4,0.7,0.5h0.1c0.3,0,0.5-0.1,0.7-0.3c0.1-0.1,0.1-0.1,0.2-0.2l1.5-2.5H20
	c0.4,0,0.7-0.2,0.9-0.5C21.1,18,21.1,17.6,20.9,17.3z M9.2,18.8l-0.9-1.5c-0.2-0.3-0.5-0.5-0.8-0.5H5.7l1.4-2.5
	c1,0.9,2.2,1.6,3.6,1.8L9.2,18.8z M12,14.3c-2.8,0-5-2.2-5-5s2.2-5,5-5s5,2.2,5,5S14.8,14.3,12,14.3z M16.5,16.8
	c-0.3,0-0.7,0.2-0.9,0.5l-0.9,1.5l-1.5-2.6c1.3-0.3,2.6-0.9,3.6-1.8l1.4,2.5L16.5,16.8z"/>
</svg>
