<?xml version="1.0" encoding="utf-8"?>
<!-- Generator: Adobe Illustrator 23.0.5, SVG Export Plug-In . SVG Version: 6.00 Build 0)  -->
<svg version="1.1" id="Layer_1" xmlns="http://www.w3.org/2000/svg" xmlns:xlink="http://www.w3.org/1999/xlink" x="0px" y="0px"
	 viewBox="0 0 24 24" style="enable-background:new 0 0 24 24;" xml:space="preserve">
<style type="text/css">
	.st0{fill:url(#SVGID_1_);}
</style>
<linearGradient id="SVGID_1_" gradientUnits="userSpaceOnUse" x1="2" y1="11.998" x2="22" y2="11.998">
	<stop  offset="0" style="stop-color:#00326F"/>
	<stop  offset="1" style="stop-color:#038ABE"/>
</linearGradient>
<path class="st0" d="M9.5,10.5H12c0.6,0,1-0.4,1-1s-0.4-1-1-1h-1V8c0-0.6-0.4-1-1-1S9,7.4,9,8v0.6c-1.4,0.3-2.2,1.6-2,2.9
	c0.2,1.2,1.3,2,2.5,2h1c0.3,0,0.5,0.2,0.5,0.5s-0.2,0.5-0.5,0.5H8c-0.6,0-1,0.4-1,1c0,0.6,0.4,1,1,1h1V17c0,0.6,0.4,1,1,1s1-0.4,1-1
	v-0.5c1.4-0.3,2.2-1.6,2-2.9c-0.2-1.2-1.3-2-2.5-2h-1C9.2,11.5,9,11.3,9,11S9.2,10.5,9.5,10.5z M21,12h-3V3c0-0.4-0.2-0.7-0.5-0.9
	c-0.3-0.2-0.7-0.2-1,0l-3,1.7l-3-1.7c-0.3-0.2-0.7-0.2-1,0l-3,1.7l-3-1.7C3.2,2,2.8,2,2.5,2.1C2.2,2.3,2,2.6,2,3v16c0,1.7,1.3,3,3,3
	h14c1.7,0,3-1.3,3-3v-6C22,12.4,21.6,12,21,12z M5,20c-0.6,0-1-0.4-1-1V4.7l2,1.1C6.3,6,6.7,6,7,5.9l3-1.7l3,1.7
	c0.3,0.2,0.7,0.2,1,0l2-1.1V19c0,0.3,0.1,0.7,0.2,1H5z M20,19c0,0.6-0.4,1-1,1s-1-0.4-1-1v-5h2V19z"/>
<image style="overflow:visible;" width="1920" height="1080" xlink:href="56821999.jpg"  transform="matrix(2.666470e-02 0 0 2.666470e-02 -55.3239 -19.6084)">
</image>
</svg>
