<?xml version="1.0" encoding="utf-8"?>
<!-- Generator: Adobe Illustrator 23.0.5, SVG Export Plug-In . SVG Version: 6.00 Build 0)  -->
<svg version="1.1" id="Layer_1" xmlns="http://www.w3.org/2000/svg" xmlns:xlink="http://www.w3.org/1999/xlink" x="0px" y="0px"
	 viewBox="0 0 24 24" style="enable-background:new 0 0 24 24;" xml:space="preserve">
<style type="text/css">
	.st0{fill:url(#SVGID_1_);}
</style>
<linearGradient id="SVGID_1_" gradientUnits="userSpaceOnUse" x1="2" y1="12" x2="22" y2="12">
	<stop  offset="0" style="stop-color:#00326F"/>
	<stop  offset="1" style="stop-color:#038ABE"/>
</linearGradient>
<path class="st0" d="M12,6c-0.6,0-1,0.4-1,1c0,0,0,0,0,0v4H9c-0.6,0-1,0.4-1,1s0.4,1,1,1h3c0.6,0,1-0.4,1-1c0,0,0,0,0,0V7
	C13,6.4,12.6,6,12,6C12,6,12,6,12,6z M12,2C6.5,2,2,6.5,2,12s4.5,10,10,10s10-4.5,10-10C22,6.5,17.5,2,12,2z M12,20
	c-4.4,0-8-3.6-8-8s3.6-8,8-8s8,3.6,8,8C20,16.4,16.4,20,12,20z"/>
<image style="overflow:visible;" width="1920" height="1080" xlink:href="57643FB6.jpg"  transform="matrix(5.071415e-02 0 0 5.071415e-02 -110.8558 -21.3856)">
</image>
</svg>
